# Tiled2Unity generated file. Do not modify by hand.
# Wavefront file for 'Level_2_mesh_0001.obj'

# Vertices (Count = 596)
v 0 -16 0
v -16 -16 0
v -16 0 0
v 0 0 0
v -16 -16 0
v -32 -16 0
v -32 0 0
v -16 0 0
v -32 -16 0
v -48 -16 0
v -48 0 0
v -32 0 0
v -48 -16 0
v -64 -16 0
v -64 0 0
v -48 0 0
v -64 -16 0
v -80 -16 0
v -80 0 0
v -64 0 0
v -80 -16 0
v -96 -16 0
v -96 0 0
v -80 0 0
v -96 -16 0
v -112 -16 0
v -112 0 0
v -96 0 0
v -112 -16 0
v -128 -16 0
v -128 0 0
v -112 0 0
v -128 -16 0
v -144 -16 0
v -144 0 0
v -128 0 0
v -144 -16 0
v -160 -16 0
v -160 0 0
v -144 0 0
v -160 -16 0
v -176 -16 0
v -176 0 0
v -160 0 0
v -176 -16 0
v -192 -16 0
v -192 0 0
v -176 0 0
v -192 -16 0
v -208 -16 0
v -208 0 0
v -192 0 0
v -208 -16 0
v -224 -16 0
v -224 0 0
v -208 0 0
v -224 -16 0
v -240 -16 0
v -240 0 0
v -224 0 0
v 0 -32 0
v -16 -32 0
v -16 -16 0
v 0 -16 0
v -16 -32 0
v -32 -32 0
v -32 -16 0
v -16 -16 0
v -32 -32 0
v -48 -32 0
v -48 -16 0
v -32 -16 0
v -48 -32 0
v -64 -32 0
v -64 -16 0
v -48 -16 0
v -64 -32 0
v -80 -32 0
v -80 -16 0
v -64 -16 0
v -80 -32 0
v -96 -32 0
v -96 -16 0
v -80 -16 0
v -96 -32 0
v -112 -32 0
v -112 -16 0
v -96 -16 0
v -112 -32 0
v -128 -32 0
v -128 -16 0
v -112 -16 0
v -128 -32 0
v -144 -32 0
v -144 -16 0
v -128 -16 0
v -144 -32 0
v -160 -32 0
v -160 -16 0
v -144 -16 0
v -160 -32 0
v -176 -32 0
v -176 -16 0
v -160 -16 0
v -176 -32 0
v -192 -32 0
v -192 -16 0
v -176 -16 0
v -192 -32 0
v -208 -32 0
v -208 -16 0
v -192 -16 0
v -208 -32 0
v -224 -32 0
v -224 -16 0
v -208 -16 0
v -224 -32 0
v -240 -32 0
v -240 -16 0
v -224 -16 0
v 0 -48 0
v -16 -48 0
v -16 -32 0
v 0 -32 0
v -16 -48 0
v -32 -48 0
v -32 -32 0
v -16 -32 0
v -32 -48 0
v -48 -48 0
v -48 -32 0
v -32 -32 0
v -48 -48 0
v -64 -48 0
v -64 -32 0
v -48 -32 0
v -64 -48 0
v -80 -48 0
v -80 -32 0
v -64 -32 0
v -80 -48 0
v -96 -48 0
v -96 -32 0
v -80 -32 0
v -96 -48 0
v -112 -48 0
v -112 -32 0
v -96 -32 0
v -112 -48 0
v -128 -48 0
v -128 -32 0
v -112 -32 0
v -128 -48 0
v -144 -48 0
v -144 -32 0
v -128 -32 0
v -144 -48 0
v -160 -48 0
v -160 -32 0
v -144 -32 0
v -160 -48 0
v -176 -48 0
v -176 -32 0
v -160 -32 0
v -176 -48 0
v -192 -48 0
v -192 -32 0
v -176 -32 0
v -192 -48 0
v -208 -48 0
v -208 -32 0
v -192 -32 0
v -208 -48 0
v -224 -48 0
v -224 -32 0
v -208 -32 0
v -224 -48 0
v -240 -48 0
v -240 -32 0
v -224 -32 0
v 0 -64 0
v -16 -64 0
v -16 -48 0
v 0 -48 0
v -16 -64 0
v -32 -64 0
v -32 -48 0
v -16 -48 0
v -32 -64 0
v -48 -64 0
v -48 -48 0
v -32 -48 0
v -48 -64 0
v -64 -64 0
v -64 -48 0
v -48 -48 0
v -64 -64 0
v -80 -64 0
v -80 -48 0
v -64 -48 0
v -80 -64 0
v -96 -64 0
v -96 -48 0
v -80 -48 0
v -96 -64 0
v -112 -64 0
v -112 -48 0
v -96 -48 0
v -112 -64 0
v -128 -64 0
v -128 -48 0
v -112 -48 0
v -128 -64 0
v -144 -64 0
v -144 -48 0
v -128 -48 0
v -144 -64 0
v -160 -64 0
v -160 -48 0
v -144 -48 0
v -160 -64 0
v -176 -64 0
v -176 -48 0
v -160 -48 0
v -176 -64 0
v -192 -64 0
v -192 -48 0
v -176 -48 0
v -192 -64 0
v -208 -64 0
v -208 -48 0
v -192 -48 0
v -208 -64 0
v -224 -64 0
v -224 -48 0
v -208 -48 0
v -224 -64 0
v -240 -64 0
v -240 -48 0
v -224 -48 0
v 0 -80 0
v -16 -80 0
v -16 -64 0
v 0 -64 0
v -16 -80 0
v -32 -80 0
v -32 -64 0
v -16 -64 0
v -32 -80 0
v -48 -80 0
v -48 -64 0
v -32 -64 0
v -48 -80 0
v -64 -80 0
v -64 -64 0
v -48 -64 0
v -64 -80 0
v -80 -80 0
v -80 -64 0
v -64 -64 0
v -80 -80 0
v -96 -80 0
v -96 -64 0
v -80 -64 0
v -96 -80 0
v -112 -80 0
v -112 -64 0
v -96 -64 0
v -112 -80 0
v -128 -80 0
v -128 -64 0
v -112 -64 0
v -128 -80 0
v -144 -80 0
v -144 -64 0
v -128 -64 0
v -144 -80 0
v -160 -80 0
v -160 -64 0
v -144 -64 0
v -160 -80 0
v -176 -80 0
v -176 -64 0
v -160 -64 0
v -176 -80 0
v -192 -80 0
v -192 -64 0
v -176 -64 0
v -192 -80 0
v -208 -80 0
v -208 -64 0
v -192 -64 0
v -208 -80 0
v -224 -80 0
v -224 -64 0
v -208 -64 0
v -224 -80 0
v -240 -80 0
v -240 -64 0
v -224 -64 0
v 0 -96 0
v -16 -96 0
v -16 -80 0
v 0 -80 0
v -16 -96 0
v -32 -96 0
v -32 -80 0
v -16 -80 0
v -32 -96 0
v -48 -96 0
v -48 -80 0
v -32 -80 0
v -48 -96 0
v -64 -96 0
v -64 -80 0
v -48 -80 0
v -64 -96 0
v -80 -96 0
v -80 -80 0
v -64 -80 0
v -80 -96 0
v -96 -96 0
v -96 -80 0
v -80 -80 0
v -96 -96 0
v -112 -96 0
v -112 -80 0
v -96 -80 0
v -112 -96 0
v -128 -96 0
v -128 -80 0
v -112 -80 0
v -128 -96 0
v -144 -96 0
v -144 -80 0
v -128 -80 0
v -144 -96 0
v -160 -96 0
v -160 -80 0
v -144 -80 0
v -160 -96 0
v -176 -96 0
v -176 -80 0
v -160 -80 0
v -176 -96 0
v -192 -96 0
v -192 -80 0
v -176 -80 0
v -192 -96 0
v -208 -96 0
v -208 -80 0
v -192 -80 0
v -208 -96 0
v -224 -96 0
v -224 -80 0
v -208 -80 0
v -224 -96 0
v -240 -96 0
v -240 -80 0
v -224 -80 0
v 0 -112 0
v -16 -112 0
v -16 -96 0
v 0 -96 0
v -16 -112 0
v -32 -112 0
v -32 -96 0
v -16 -96 0
v -32 -112 0
v -48 -112 0
v -48 -96 0
v -32 -96 0
v -48 -112 0
v -64 -112 0
v -64 -96 0
v -48 -96 0
v -64 -112 0
v -80 -112 0
v -80 -96 0
v -64 -96 0
v -80 -112 0
v -96 -112 0
v -96 -96 0
v -80 -96 0
v -96 -112 0
v -112 -112 0
v -112 -96 0
v -96 -96 0
v -112 -112 0
v -128 -112 0
v -128 -96 0
v -112 -96 0
v -128 -112 0
v -144 -112 0
v -144 -96 0
v -128 -96 0
v -144 -112 0
v -160 -112 0
v -160 -96 0
v -144 -96 0
v -160 -112 0
v -176 -112 0
v -176 -96 0
v -160 -96 0
v -176 -112 0
v -192 -112 0
v -192 -96 0
v -176 -96 0
v -192 -112 0
v -208 -112 0
v -208 -96 0
v -192 -96 0
v -208 -112 0
v -224 -112 0
v -224 -96 0
v -208 -96 0
v -224 -112 0
v -240 -112 0
v -240 -96 0
v -224 -96 0
v 0 -128 0
v -16 -128 0
v -16 -112 0
v 0 -112 0
v -16 -128 0
v -32 -128 0
v -32 -112 0
v -16 -112 0
v -32 -128 0
v -48 -128 0
v -48 -112 0
v -32 -112 0
v -48 -128 0
v -64 -128 0
v -64 -112 0
v -48 -112 0
v -64 -128 0
v -80 -128 0
v -80 -112 0
v -64 -112 0
v -80 -128 0
v -96 -128 0
v -96 -112 0
v -80 -112 0
v -96 -128 0
v -112 -128 0
v -112 -112 0
v -96 -112 0
v -112 -128 0
v -128 -128 0
v -128 -112 0
v -112 -112 0
v -128 -128 0
v -144 -128 0
v -144 -112 0
v -128 -112 0
v -144 -128 0
v -160 -128 0
v -160 -112 0
v -144 -112 0
v -160 -128 0
v -176 -128 0
v -176 -112 0
v -160 -112 0
v -176 -128 0
v -192 -128 0
v -192 -112 0
v -176 -112 0
v -192 -128 0
v -208 -128 0
v -208 -112 0
v -192 -112 0
v -208 -128 0
v -224 -128 0
v -224 -112 0
v -208 -112 0
v 0 -144 0
v -16 -144 0
v -16 -128 0
v 0 -128 0
v -16 -144 0
v -32 -144 0
v -32 -128 0
v -16 -128 0
v -32 -144 0
v -48 -144 0
v -48 -128 0
v -32 -128 0
v -48 -144 0
v -64 -144 0
v -64 -128 0
v -48 -128 0
v -64 -144 0
v -80 -144 0
v -80 -128 0
v -64 -128 0
v -80 -144 0
v -96 -144 0
v -96 -128 0
v -80 -128 0
v -96 -144 0
v -112 -144 0
v -112 -128 0
v -96 -128 0
v -112 -144 0
v -128 -144 0
v -128 -128 0
v -112 -128 0
v -128 -144 0
v -144 -144 0
v -144 -128 0
v -128 -128 0
v -144 -144 0
v -160 -144 0
v -160 -128 0
v -144 -128 0
v -160 -144 0
v -176 -144 0
v -176 -128 0
v -160 -128 0
v -176 -144 0
v -192 -144 0
v -192 -128 0
v -176 -128 0
v -192 -144 0
v -208 -144 0
v -208 -128 0
v -192 -128 0
v -208 -144 0
v -224 -144 0
v -224 -128 0
v -208 -128 0
v -224 -144 0
v -240 -144 0
v -240 -128 0
v -224 -128 0
v 0 -160 0
v -16 -160 0
v -16 -144 0
v 0 -144 0
v -16 -160 0
v -32 -160 0
v -32 -144 0
v -16 -144 0
v -32 -160 0
v -48 -160 0
v -48 -144 0
v -32 -144 0
v -48 -160 0
v -64 -160 0
v -64 -144 0
v -48 -144 0
v -64 -160 0
v -80 -160 0
v -80 -144 0
v -64 -144 0
v -80 -160 0
v -96 -160 0
v -96 -144 0
v -80 -144 0
v -96 -160 0
v -112 -160 0
v -112 -144 0
v -96 -144 0
v -112 -160 0
v -128 -160 0
v -128 -144 0
v -112 -144 0
v -128 -160 0
v -144 -160 0
v -144 -144 0
v -128 -144 0
v -144 -160 0
v -160 -160 0
v -160 -144 0
v -144 -144 0
v -160 -160 0
v -176 -160 0
v -176 -144 0
v -160 -144 0
v -176 -160 0
v -192 -160 0
v -192 -144 0
v -176 -144 0
v -192 -160 0
v -208 -160 0
v -208 -144 0
v -192 -144 0
v -208 -160 0
v -224 -160 0
v -224 -144 0
v -208 -144 0
v -224 -160 0
v -240 -160 0
v -240 -144 0
v -224 -144 0

# Texture cooridinates (Count = 260)
vt 0.1128609 0.4826087
vt 0.1338583 0.4826087
vt 0.1338583 0.5173913
vt 0.1128609 0.5173913
vt 0.1574803 0.4826087
vt 0.1784777 0.4826087
vt 0.1784777 0.5173913
vt 0.1574803 0.5173913
vt 0.2020997 0.4826087
vt 0.2230971 0.4826087
vt 0.2230971 0.5173913
vt 0.2020997 0.5173913
vt 0.001312336 0.5195652
vt 0.02230971 0.5195652
vt 0.02230971 0.5543478
vt 0.001312336 0.5543478
vt 0.06824147 0.5195652
vt 0.08923884 0.5195652
vt 0.08923884 0.5543478
vt 0.06824147 0.5543478
vt 0.09055118 0.5195652
vt 0.1115486 0.5195652
vt 0.1115486 0.5543478
vt 0.09055118 0.5543478
vt 0.1128609 0.4456522
vt 0.1338583 0.4456522
vt 0.1338583 0.4804348
vt 0.1128609 0.4804348
vt 0.001312336 0.4456522
vt 0.02230971 0.4456522
vt 0.02230971 0.4804348
vt 0.001312336 0.4804348
vt 0.001312336 0.2978261
vt 0.02230971 0.2978261
vt 0.02230971 0.3326087
vt 0.001312336 0.3326087
vt 0.2467192 0.2978261
vt 0.2677165 0.2978261
vt 0.2677165 0.3326087
vt 0.2467192 0.3326087
vt 0.17979 0.2978261
vt 0.2007874 0.2978261
vt 0.2007874 0.3326087
vt 0.17979 0.3326087
vt 0.3136483 0.2608696
vt 0.3346457 0.2608696
vt 0.3346457 0.2956522
vt 0.3136483 0.2956522
vt 0.2020997 0.2978261
vt 0.2230971 0.2978261
vt 0.2230971 0.3326087
vt 0.2020997 0.3326087
vt 0.02362205 0.2978261
vt 0.04461942 0.2978261
vt 0.04461942 0.3326087
vt 0.02362205 0.3326087
vt 0.02362205 0.4826087
vt 0.04461942 0.4826087
vt 0.04461942 0.5173913
vt 0.02362205 0.5173913
vt 0.04593176 0.4826087
vt 0.06692913 0.4826087
vt 0.06692913 0.5173913
vt 0.04593176 0.5173913
vt 0.02362205 0.5195652
vt 0.04461942 0.5195652
vt 0.04461942 0.5543478
vt 0.02362205 0.5543478
vt 0.04593176 0.4456522
vt 0.06692913 0.4456522
vt 0.06692913 0.4804348
vt 0.04593176 0.4804348
vt 0.1128609 0.2608696
vt 0.1338583 0.2608696
vt 0.1338583 0.2956522
vt 0.1128609 0.2956522
vt 0.2467192 0.2608696
vt 0.2677165 0.2608696
vt 0.2677165 0.2956522
vt 0.2467192 0.2956522
vt 0.335958 0.2608696
vt 0.3569554 0.2608696
vt 0.3569554 0.2956522
vt 0.335958 0.2956522
vt 0.2690289 0.2608696
vt 0.2900262 0.2608696
vt 0.2900262 0.2956522
vt 0.2690289 0.2956522
vt 0.04593176 0.2608696
vt 0.06692913 0.2608696
vt 0.06692913 0.2956522
vt 0.04593176 0.2956522
vt 0.001312336 0.5565218
vt 0.02230971 0.5565218
vt 0.02230971 0.5913044
vt 0.001312336 0.5913044
vt 0.1574803 0.4456522
vt 0.1784777 0.4456522
vt 0.1784777 0.4804348
vt 0.1574803 0.4804348
vt 0.06824147 0.2608696
vt 0.08923884 0.2608696
vt 0.08923884 0.2956522
vt 0.06824147 0.2956522
vt 0.2020997 0.2608696
vt 0.2230971 0.2608696
vt 0.2230971 0.2956522
vt 0.2020997 0.2956522
vt 0.2913386 0.2608696
vt 0.312336 0.2608696
vt 0.312336 0.2956522
vt 0.2913386 0.2956522
vt 0.2244094 0.2608696
vt 0.2454068 0.2608696
vt 0.2454068 0.2956522
vt 0.2244094 0.2956522
vt 0.001312336 0.2608696
vt 0.02230971 0.2608696
vt 0.02230971 0.2956522
vt 0.001312336 0.2956522
vt 0.1351706 0.4456522
vt 0.156168 0.4456522
vt 0.156168 0.4804348
vt 0.1351706 0.4804348
vt 0.04593176 0.2978261
vt 0.06692913 0.2978261
vt 0.06692913 0.3326087
vt 0.04593176 0.3326087
vt 0.1574803 0.2608696
vt 0.1784777 0.2608696
vt 0.1784777 0.2956522
vt 0.1574803 0.2956522
vt 0.09055118 0.2608696
vt 0.1115486 0.2608696
vt 0.1115486 0.2956522
vt 0.09055118 0.2956522
vt 0.06824147 0.4826087
vt 0.08923884 0.4826087
vt 0.08923884 0.5173913
vt 0.06824147 0.5173913
vt 0.06824147 0.4456522
vt 0.08923884 0.4456522
vt 0.08923884 0.4804348
vt 0.06824147 0.4804348
vt 0.17979 0.2608696
vt 0.2007874 0.2608696
vt 0.2007874 0.2956522
vt 0.17979 0.2956522
vt 0.1351706 0.2608696
vt 0.156168 0.2608696
vt 0.156168 0.2956522
vt 0.1351706 0.2956522
vt 0.001312336 0.3717391
vt 0.02230971 0.3717391
vt 0.02230971 0.4065217
vt 0.001312336 0.4065217
vt 0.1128609 0.3717391
vt 0.1338583 0.3717391
vt 0.1338583 0.4065217
vt 0.1128609 0.4065217
vt 0.02362205 0.2608696
vt 0.04461942 0.2608696
vt 0.04461942 0.2956522
vt 0.02362205 0.2956522
vt 0.17979 0.4826087
vt 0.2007874 0.4826087
vt 0.2007874 0.5173913
vt 0.17979 0.5173913
vt 0.1351706 0.4826087
vt 0.156168 0.4826087
vt 0.156168 0.5173913
vt 0.1351706 0.5173913
vt 0.06824147 0.3717391
vt 0.08923884 0.3717391
vt 0.08923884 0.4065217
vt 0.06824147 0.4065217
vt 0.1128609 0.2978261
vt 0.1338583 0.2978261
vt 0.1338583 0.3326087
vt 0.1128609 0.3326087
vt 0.06824147 0.2978261
vt 0.08923884 0.2978261
vt 0.08923884 0.3326087
vt 0.06824147 0.3326087
vt 0.1574803 0.2978261
vt 0.1784777 0.2978261
vt 0.1784777 0.3326087
vt 0.1574803 0.3326087
vt 0.09055118 0.2978261
vt 0.1115486 0.2978261
vt 0.1115486 0.3326087
vt 0.09055118 0.3326087
vt 0.1351706 0.2978261
vt 0.156168 0.2978261
vt 0.156168 0.3326087
vt 0.1351706 0.3326087
vt 0.02362205 0.5565218
vt 0.04461942 0.5565218
vt 0.04461942 0.5913044
vt 0.02362205 0.5913044
vt 0.2244094 0.4826087
vt 0.2454068 0.4826087
vt 0.2454068 0.5173913
vt 0.2244094 0.5173913
vt 0.04593176 0.3717391
vt 0.06692913 0.3717391
vt 0.06692913 0.4065217
vt 0.04593176 0.4065217
vt 0.02362205 0.3717391
vt 0.04461942 0.3717391
vt 0.04461942 0.4065217
vt 0.02362205 0.4065217
vt 0.09055118 0.3717391
vt 0.1115486 0.3717391
vt 0.1115486 0.4065217
vt 0.09055118 0.4065217
vt 0.001312336 0.3347826
vt 0.02230971 0.3347826
vt 0.02230971 0.3695652
vt 0.001312336 0.3695652
vt 0.2244094 0.2978261
vt 0.2454068 0.2978261
vt 0.2454068 0.3326087
vt 0.2244094 0.3326087
vt 0.2690289 0.2978261
vt 0.2900262 0.2978261
vt 0.2900262 0.3326087
vt 0.2690289 0.3326087
vt 0.09055118 0.4826087
vt 0.1115486 0.4826087
vt 0.1115486 0.5173913
vt 0.09055118 0.5173913
vt 0.02362205 0.3347826
vt 0.04461942 0.3347826
vt 0.04461942 0.3695652
vt 0.02362205 0.3695652
vt 0.04593176 0.5195652
vt 0.06692913 0.5195652
vt 0.06692913 0.5543478
vt 0.04593176 0.5543478
vt 0.06824147 0.4086956
vt 0.08923884 0.4086956
vt 0.08923884 0.4434783
vt 0.06824147 0.4434783
vt 0.02362205 0.4086956
vt 0.04461942 0.4086956
vt 0.04461942 0.4434783
vt 0.02362205 0.4434783
vt 0.001312336 0.4086956
vt 0.02230971 0.4086956
vt 0.02230971 0.4434783
vt 0.001312336 0.4434783
vt 0.04593176 0.4086956
vt 0.06692913 0.4086956
vt 0.06692913 0.4434783
vt 0.04593176 0.4434783
vt 0.02362205 0.4456522
vt 0.04461942 0.4456522
vt 0.04461942 0.4804348
vt 0.02362205 0.4804348

# Normal
vn 0 0 -1

# Mesh description
g Level_2_mesh_0001

# Faces
f 1/1/1 2/2/1 3/3/1 4/4/1
f 5/5/1 6/6/1 7/7/1 8/8/1
f 9/9/1 10/10/1 11/11/1 12/12/1
f 13/13/1 14/14/1 15/15/1 16/16/1
f 17/17/1 18/18/1 19/19/1 20/20/1
f 21/21/1 22/22/1 23/23/1 24/24/1
f 25/25/1 26/26/1 27/27/1 28/28/1
f 29/29/1 30/30/1 31/31/1 32/32/1
f 33/33/1 34/34/1 35/35/1 36/36/1
f 37/37/1 38/38/1 39/39/1 40/40/1
f 41/41/1 42/42/1 43/43/1 44/44/1
f 45/45/1 46/46/1 47/47/1 48/48/1
f 49/41/1 50/42/1 51/43/1 52/44/1
f 53/49/1 54/50/1 55/51/1 56/52/1
f 57/53/1 58/54/1 59/55/1 60/56/1
f 61/57/1 62/58/1 63/59/1 64/60/1
f 65/61/1 66/62/1 67/63/1 68/64/1
f 69/13/1 70/14/1 71/15/1 72/16/1
f 73/13/1 74/14/1 75/15/1 76/16/1
f 77/65/1 78/66/1 79/67/1 80/68/1
f 81/21/1 82/22/1 83/23/1 84/24/1
f 85/21/1 86/22/1 87/23/1 88/24/1
f 89/69/1 90/70/1 91/71/1 92/72/1
f 93/33/1 94/34/1 95/35/1 96/36/1
f 97/73/1 98/74/1 99/75/1 100/76/1
f 101/77/1 102/78/1 103/79/1 104/80/1
f 105/81/1 106/82/1 107/83/1 108/84/1
f 109/85/1 110/86/1 111/87/1 112/88/1
f 113/89/1 114/90/1 115/91/1 116/92/1
f 117/53/1 118/54/1 119/55/1 120/56/1
f 121/13/1 122/14/1 123/15/1 124/16/1
f 125/13/1 126/14/1 127/15/1 128/16/1
f 129/93/1 130/94/1 131/95/1 132/96/1
f 133/93/1 134/94/1 135/95/1 136/96/1
f 137/97/1 138/98/1 139/99/1 140/100/1
f 141/13/1 142/14/1 143/15/1 144/16/1
f 145/13/1 146/14/1 147/15/1 148/16/1
f 149/21/1 150/22/1 151/23/1 152/24/1
f 153/33/1 154/34/1 155/35/1 156/36/1
f 157/101/1 158/102/1 159/103/1 160/104/1
f 161/105/1 162/106/1 163/107/1 164/108/1
f 165/109/1 166/110/1 167/111/1 168/112/1
f 169/113/1 170/114/1 171/115/1 172/116/1
f 173/117/1 174/118/1 175/119/1 176/120/1
f 177/53/1 178/54/1 179/55/1 180/56/1
f 181/13/1 182/14/1 183/15/1 184/16/1
f 185/13/1 186/14/1 187/15/1 188/16/1
f 189/65/1 190/66/1 191/67/1 192/68/1
f 193/69/1 194/70/1 195/71/1 196/72/1
f 197/29/1 198/30/1 199/31/1 200/32/1
f 201/17/1 202/18/1 203/19/1 204/20/1
f 205/13/1 206/14/1 207/15/1 208/16/1
f 209/121/1 210/122/1 211/123/1 212/124/1
f 213/125/1 214/126/1 215/127/1 216/128/1
f 217/101/1 218/102/1 219/103/1 220/104/1
f 221/129/1 222/130/1 223/131/1 224/132/1
f 225/133/1 226/134/1 227/135/1 228/136/1
f 229/129/1 230/130/1 231/131/1 232/132/1
f 233/101/1 234/102/1 235/103/1 236/104/1
f 237/53/1 238/54/1 239/55/1 240/56/1
f 241/137/1 242/138/1 243/139/1 244/140/1
f 245/17/1 246/18/1 247/19/1 248/20/1
f 249/65/1 250/66/1 251/67/1 252/68/1
f 253/121/1 254/122/1 255/123/1 256/124/1
f 257/141/1 258/142/1 259/143/1 260/144/1
f 261/21/1 262/22/1 263/23/1 264/24/1
f 265/21/1 266/22/1 267/23/1 268/24/1
f 269/25/1 270/26/1 271/27/1 272/28/1
f 273/33/1 274/34/1 275/35/1 276/36/1
f 277/133/1 278/134/1 279/135/1 280/136/1
f 281/145/1 282/146/1 283/147/1 284/148/1
f 285/149/1 286/150/1 287/151/1 288/152/1
f 289/145/1 290/146/1 291/147/1 292/148/1
f 293/149/1 294/150/1 295/151/1 296/152/1
f 297/53/1 298/54/1 299/55/1 300/56/1
f 301/1/1 302/2/1 303/3/1 304/4/1
f 305/5/1 306/6/1 307/7/1 308/8/1
f 309/137/1 310/138/1 311/139/1 312/140/1
f 313/17/1 314/18/1 315/19/1 316/20/1
f 317/13/1 318/14/1 319/15/1 320/16/1
f 321/153/1 322/154/1 323/155/1 324/156/1
f 325/157/1 326/158/1 327/159/1 328/160/1
f 329/13/1 330/14/1 331/15/1 332/16/1
f 333/33/1 334/34/1 335/35/1 336/36/1
f 337/133/1 338/134/1 339/135/1 340/136/1
f 341/133/1 342/134/1 343/135/1 344/136/1
f 345/161/1 346/162/1 347/163/1 348/164/1
f 349/161/1 350/162/1 351/163/1 352/164/1
f 353/117/1 354/118/1 355/119/1 356/120/1
f 357/53/1 358/54/1 359/55/1 360/56/1
f 361/57/1 362/58/1 363/59/1 364/60/1
f 365/165/1 366/166/1 367/167/1 368/168/1
f 369/169/1 370/170/1 371/171/1 372/172/1
f 373/21/1 374/22/1 375/23/1 376/24/1
f 377/13/1 378/14/1 379/15/1 380/16/1
f 381/153/1 382/154/1 383/155/1 384/156/1
f 385/173/1 386/174/1 387/175/1 388/176/1
f 389/13/1 390/14/1 391/15/1 392/16/1
f 393/177/1 394/178/1 395/179/1 396/180/1
f 397/181/1 398/182/1 399/183/1 400/184/1
f 401/185/1 402/186/1 403/187/1 404/188/1
f 405/133/1 406/134/1 407/135/1 408/136/1
f 409/185/1 410/186/1 411/187/1 412/188/1
f 413/189/1 414/190/1 415/191/1 416/192/1
f 417/193/1 418/194/1 419/195/1 420/196/1
f 421/197/1 422/198/1 423/199/1 424/200/1
f 425/197/1 426/198/1 427/199/1 428/200/1
f 429/201/1 430/202/1 431/203/1 432/204/1
f 433/65/1 434/66/1 435/67/1 436/68/1
f 437/205/1 438/206/1 439/207/1 440/208/1
f 441/209/1 442/210/1 443/211/1 444/212/1
f 445/213/1 446/214/1 447/215/1 448/216/1
f 449/217/1 450/218/1 451/219/1 452/220/1
f 453/221/1 454/222/1 455/223/1 456/224/1
f 457/225/1 458/226/1 459/227/1 460/228/1
f 461/41/1 462/42/1 463/43/1 464/44/1
f 465/133/1 466/134/1 467/135/1 468/136/1
f 469/41/1 470/42/1 471/43/1 472/44/1
f 473/37/1 474/38/1 475/39/1 476/40/1
f 477/13/1 478/14/1 479/15/1 480/16/1
f 481/65/1 482/66/1 483/67/1 484/68/1
f 485/21/1 486/22/1 487/23/1 488/24/1
f 489/229/1 490/230/1 491/231/1 492/232/1
f 493/153/1 494/154/1 495/155/1 496/156/1
f 497/173/1 498/174/1 499/175/1 500/176/1
f 501/233/1 502/234/1 503/235/1 504/236/1
f 505/217/1 506/218/1 507/219/1 508/220/1
f 509/21/1 510/22/1 511/23/1 512/24/1
f 513/237/1 514/238/1 515/239/1 516/240/1
f 517/241/1 518/242/1 519/243/1 520/244/1
f 521/245/1 522/246/1 523/247/1 524/248/1
f 525/21/1 526/22/1 527/23/1 528/24/1
f 529/237/1 530/238/1 531/239/1 532/240/1
f 533/17/1 534/18/1 535/19/1 536/20/1
f 537/197/1 538/198/1 539/199/1 540/200/1
f 541/13/1 542/14/1 543/15/1 544/16/1
f 545/229/1 546/230/1 547/231/1 548/232/1
f 549/249/1 550/250/1 551/251/1 552/252/1
f 553/153/1 554/154/1 555/155/1 556/156/1
f 557/173/1 558/174/1 559/175/1 560/176/1
f 561/217/1 562/218/1 563/219/1 564/220/1
f 565/13/1 566/14/1 567/15/1 568/16/1
f 569/13/1 570/14/1 571/15/1 572/16/1
f 573/17/1 574/18/1 575/19/1 576/20/1
f 577/57/1 578/58/1 579/59/1 580/60/1
f 581/249/1 582/250/1 583/251/1 584/252/1
f 585/253/1 586/254/1 587/255/1 588/256/1
f 589/21/1 590/22/1 591/23/1 592/24/1
f 593/257/1 594/258/1 595/259/1 596/260/1

