# Tiled2Unity generated file. Do not modify by hand.
# Wavefront file for 'Level_2_mesh_0003.obj'

# Vertices (Count = 16)
v -128 -32 0
v -144 -32 0
v -144 -16 0
v -128 -16 0
v -128 -48 0
v -144 -48 0
v -144 -32 0
v -128 -32 0
v -128 -64 0
v -144 -64 0
v -144 -48 0
v -128 -48 0
v -144 -64 0
v -160 -64 0
v -160 -48 0
v -144 -48 0

# Texture cooridinates (Count = 16)
vt 0.1128609 0.2978261
vt 0.1338583 0.2978261
vt 0.1338583 0.3326087
vt 0.1128609 0.3326087
vt 0.2244094 0.2978261
vt 0.2454068 0.2978261
vt 0.2454068 0.3326087
vt 0.2244094 0.3326087
vt 0.04593176 0.2608696
vt 0.06692913 0.2608696
vt 0.06692913 0.2956522
vt 0.04593176 0.2956522
vt 0.001312336 0.2608696
vt 0.02230971 0.2608696
vt 0.02230971 0.2956522
vt 0.001312336 0.2956522

# Normal
vn 0 0 -1

# Mesh description
g Level_2_mesh_0003

# Faces
f 1/1/1 2/2/1 3/3/1 4/4/1
f 5/5/1 6/6/1 7/7/1 8/8/1
f 9/9/1 10/10/1 11/11/1 12/12/1
f 13/13/1 14/14/1 15/15/1 16/16/1

