# Tiled2Unity generated file. Do not modify by hand.
# Wavefront file for 'Level_0_mesh_0001.obj'

# Vertices (Count = 600)
v 0 -16 0
v -16 -16 0
v -16 0 0
v 0 0 0
v -16 -16 0
v -32 -16 0
v -32 0 0
v -16 0 0
v -32 -16 0
v -48 -16 0
v -48 0 0
v -32 0 0
v -48 -16 0
v -64 -16 0
v -64 0 0
v -48 0 0
v -64 -16 0
v -80 -16 0
v -80 0 0
v -64 0 0
v -80 -16 0
v -96 -16 0
v -96 0 0
v -80 0 0
v -96 -16 0
v -112 -16 0
v -112 0 0
v -96 0 0
v -112 -16 0
v -128 -16 0
v -128 0 0
v -112 0 0
v -128 -16 0
v -144 -16 0
v -144 0 0
v -128 0 0
v -144 -16 0
v -160 -16 0
v -160 0 0
v -144 0 0
v -160 -16 0
v -176 -16 0
v -176 0 0
v -160 0 0
v -176 -16 0
v -192 -16 0
v -192 0 0
v -176 0 0
v -192 -16 0
v -208 -16 0
v -208 0 0
v -192 0 0
v -208 -16 0
v -224 -16 0
v -224 0 0
v -208 0 0
v -224 -16 0
v -240 -16 0
v -240 0 0
v -224 0 0
v 0 -32 0
v -16 -32 0
v -16 -16 0
v 0 -16 0
v -16 -32 0
v -32 -32 0
v -32 -16 0
v -16 -16 0
v -32 -32 0
v -48 -32 0
v -48 -16 0
v -32 -16 0
v -48 -32 0
v -64 -32 0
v -64 -16 0
v -48 -16 0
v -64 -32 0
v -80 -32 0
v -80 -16 0
v -64 -16 0
v -80 -32 0
v -96 -32 0
v -96 -16 0
v -80 -16 0
v -96 -32 0
v -112 -32 0
v -112 -16 0
v -96 -16 0
v -112 -32 0
v -128 -32 0
v -128 -16 0
v -112 -16 0
v -128 -32 0
v -144 -32 0
v -144 -16 0
v -128 -16 0
v -144 -32 0
v -160 -32 0
v -160 -16 0
v -144 -16 0
v -160 -32 0
v -176 -32 0
v -176 -16 0
v -160 -16 0
v -176 -32 0
v -192 -32 0
v -192 -16 0
v -176 -16 0
v -192 -32 0
v -208 -32 0
v -208 -16 0
v -192 -16 0
v -208 -32 0
v -224 -32 0
v -224 -16 0
v -208 -16 0
v -224 -32 0
v -240 -32 0
v -240 -16 0
v -224 -16 0
v 0 -48 0
v -16 -48 0
v -16 -32 0
v 0 -32 0
v -16 -48 0
v -32 -48 0
v -32 -32 0
v -16 -32 0
v -32 -48 0
v -48 -48 0
v -48 -32 0
v -32 -32 0
v -48 -48 0
v -64 -48 0
v -64 -32 0
v -48 -32 0
v -64 -48 0
v -80 -48 0
v -80 -32 0
v -64 -32 0
v -80 -48 0
v -96 -48 0
v -96 -32 0
v -80 -32 0
v -96 -48 0
v -112 -48 0
v -112 -32 0
v -96 -32 0
v -112 -48 0
v -128 -48 0
v -128 -32 0
v -112 -32 0
v -128 -48 0
v -144 -48 0
v -144 -32 0
v -128 -32 0
v -144 -48 0
v -160 -48 0
v -160 -32 0
v -144 -32 0
v -160 -48 0
v -176 -48 0
v -176 -32 0
v -160 -32 0
v -176 -48 0
v -192 -48 0
v -192 -32 0
v -176 -32 0
v -192 -48 0
v -208 -48 0
v -208 -32 0
v -192 -32 0
v -208 -48 0
v -224 -48 0
v -224 -32 0
v -208 -32 0
v -224 -48 0
v -240 -48 0
v -240 -32 0
v -224 -32 0
v 0 -64 0
v -16 -64 0
v -16 -48 0
v 0 -48 0
v -16 -64 0
v -32 -64 0
v -32 -48 0
v -16 -48 0
v -32 -64 0
v -48 -64 0
v -48 -48 0
v -32 -48 0
v -48 -64 0
v -64 -64 0
v -64 -48 0
v -48 -48 0
v -64 -64 0
v -80 -64 0
v -80 -48 0
v -64 -48 0
v -80 -64 0
v -96 -64 0
v -96 -48 0
v -80 -48 0
v -96 -64 0
v -112 -64 0
v -112 -48 0
v -96 -48 0
v -112 -64 0
v -128 -64 0
v -128 -48 0
v -112 -48 0
v -128 -64 0
v -144 -64 0
v -144 -48 0
v -128 -48 0
v -144 -64 0
v -160 -64 0
v -160 -48 0
v -144 -48 0
v -160 -64 0
v -176 -64 0
v -176 -48 0
v -160 -48 0
v -176 -64 0
v -192 -64 0
v -192 -48 0
v -176 -48 0
v -192 -64 0
v -208 -64 0
v -208 -48 0
v -192 -48 0
v -208 -64 0
v -224 -64 0
v -224 -48 0
v -208 -48 0
v -224 -64 0
v -240 -64 0
v -240 -48 0
v -224 -48 0
v 0 -80 0
v -16 -80 0
v -16 -64 0
v 0 -64 0
v -16 -80 0
v -32 -80 0
v -32 -64 0
v -16 -64 0
v -32 -80 0
v -48 -80 0
v -48 -64 0
v -32 -64 0
v -48 -80 0
v -64 -80 0
v -64 -64 0
v -48 -64 0
v -64 -80 0
v -80 -80 0
v -80 -64 0
v -64 -64 0
v -80 -80 0
v -96 -80 0
v -96 -64 0
v -80 -64 0
v -96 -80 0
v -112 -80 0
v -112 -64 0
v -96 -64 0
v -112 -80 0
v -128 -80 0
v -128 -64 0
v -112 -64 0
v -128 -80 0
v -144 -80 0
v -144 -64 0
v -128 -64 0
v -144 -80 0
v -160 -80 0
v -160 -64 0
v -144 -64 0
v -160 -80 0
v -176 -80 0
v -176 -64 0
v -160 -64 0
v -176 -80 0
v -192 -80 0
v -192 -64 0
v -176 -64 0
v -192 -80 0
v -208 -80 0
v -208 -64 0
v -192 -64 0
v -208 -80 0
v -224 -80 0
v -224 -64 0
v -208 -64 0
v -224 -80 0
v -240 -80 0
v -240 -64 0
v -224 -64 0
v 0 -96 0
v -16 -96 0
v -16 -80 0
v 0 -80 0
v -16 -96 0
v -32 -96 0
v -32 -80 0
v -16 -80 0
v -32 -96 0
v -48 -96 0
v -48 -80 0
v -32 -80 0
v -48 -96 0
v -64 -96 0
v -64 -80 0
v -48 -80 0
v -64 -96 0
v -80 -96 0
v -80 -80 0
v -64 -80 0
v -80 -96 0
v -96 -96 0
v -96 -80 0
v -80 -80 0
v -96 -96 0
v -112 -96 0
v -112 -80 0
v -96 -80 0
v -112 -96 0
v -128 -96 0
v -128 -80 0
v -112 -80 0
v -128 -96 0
v -144 -96 0
v -144 -80 0
v -128 -80 0
v -144 -96 0
v -160 -96 0
v -160 -80 0
v -144 -80 0
v -160 -96 0
v -176 -96 0
v -176 -80 0
v -160 -80 0
v -176 -96 0
v -192 -96 0
v -192 -80 0
v -176 -80 0
v -192 -96 0
v -208 -96 0
v -208 -80 0
v -192 -80 0
v -208 -96 0
v -224 -96 0
v -224 -80 0
v -208 -80 0
v -224 -96 0
v -240 -96 0
v -240 -80 0
v -224 -80 0
v 0 -112 0
v -16 -112 0
v -16 -96 0
v 0 -96 0
v -16 -112 0
v -32 -112 0
v -32 -96 0
v -16 -96 0
v -32 -112 0
v -48 -112 0
v -48 -96 0
v -32 -96 0
v -48 -112 0
v -64 -112 0
v -64 -96 0
v -48 -96 0
v -64 -112 0
v -80 -112 0
v -80 -96 0
v -64 -96 0
v -80 -112 0
v -96 -112 0
v -96 -96 0
v -80 -96 0
v -96 -112 0
v -112 -112 0
v -112 -96 0
v -96 -96 0
v -112 -112 0
v -128 -112 0
v -128 -96 0
v -112 -96 0
v -128 -112 0
v -144 -112 0
v -144 -96 0
v -128 -96 0
v -144 -112 0
v -160 -112 0
v -160 -96 0
v -144 -96 0
v -160 -112 0
v -176 -112 0
v -176 -96 0
v -160 -96 0
v -176 -112 0
v -192 -112 0
v -192 -96 0
v -176 -96 0
v -192 -112 0
v -208 -112 0
v -208 -96 0
v -192 -96 0
v -208 -112 0
v -224 -112 0
v -224 -96 0
v -208 -96 0
v -224 -112 0
v -240 -112 0
v -240 -96 0
v -224 -96 0
v 0 -128 0
v -16 -128 0
v -16 -112 0
v 0 -112 0
v -16 -128 0
v -32 -128 0
v -32 -112 0
v -16 -112 0
v -32 -128 0
v -48 -128 0
v -48 -112 0
v -32 -112 0
v -48 -128 0
v -64 -128 0
v -64 -112 0
v -48 -112 0
v -64 -128 0
v -80 -128 0
v -80 -112 0
v -64 -112 0
v -80 -128 0
v -96 -128 0
v -96 -112 0
v -80 -112 0
v -96 -128 0
v -112 -128 0
v -112 -112 0
v -96 -112 0
v -112 -128 0
v -128 -128 0
v -128 -112 0
v -112 -112 0
v -128 -128 0
v -144 -128 0
v -144 -112 0
v -128 -112 0
v -144 -128 0
v -160 -128 0
v -160 -112 0
v -144 -112 0
v -160 -128 0
v -176 -128 0
v -176 -112 0
v -160 -112 0
v -176 -128 0
v -192 -128 0
v -192 -112 0
v -176 -112 0
v -192 -128 0
v -208 -128 0
v -208 -112 0
v -192 -112 0
v -208 -128 0
v -224 -128 0
v -224 -112 0
v -208 -112 0
v -224 -128 0
v -240 -128 0
v -240 -112 0
v -224 -112 0
v 0 -144 0
v -16 -144 0
v -16 -128 0
v 0 -128 0
v -16 -144 0
v -32 -144 0
v -32 -128 0
v -16 -128 0
v -32 -144 0
v -48 -144 0
v -48 -128 0
v -32 -128 0
v -48 -144 0
v -64 -144 0
v -64 -128 0
v -48 -128 0
v -64 -144 0
v -80 -144 0
v -80 -128 0
v -64 -128 0
v -80 -144 0
v -96 -144 0
v -96 -128 0
v -80 -128 0
v -96 -144 0
v -112 -144 0
v -112 -128 0
v -96 -128 0
v -112 -144 0
v -128 -144 0
v -128 -128 0
v -112 -128 0
v -128 -144 0
v -144 -144 0
v -144 -128 0
v -128 -128 0
v -144 -144 0
v -160 -144 0
v -160 -128 0
v -144 -128 0
v -160 -144 0
v -176 -144 0
v -176 -128 0
v -160 -128 0
v -176 -144 0
v -192 -144 0
v -192 -128 0
v -176 -128 0
v -192 -144 0
v -208 -144 0
v -208 -128 0
v -192 -128 0
v -208 -144 0
v -224 -144 0
v -224 -128 0
v -208 -128 0
v -224 -144 0
v -240 -144 0
v -240 -128 0
v -224 -128 0
v 0 -160 0
v -16 -160 0
v -16 -144 0
v 0 -144 0
v -16 -160 0
v -32 -160 0
v -32 -144 0
v -16 -144 0
v -32 -160 0
v -48 -160 0
v -48 -144 0
v -32 -144 0
v -48 -160 0
v -64 -160 0
v -64 -144 0
v -48 -144 0
v -64 -160 0
v -80 -160 0
v -80 -144 0
v -64 -144 0
v -80 -160 0
v -96 -160 0
v -96 -144 0
v -80 -144 0
v -96 -160 0
v -112 -160 0
v -112 -144 0
v -96 -144 0
v -112 -160 0
v -128 -160 0
v -128 -144 0
v -112 -144 0
v -128 -160 0
v -144 -160 0
v -144 -144 0
v -128 -144 0
v -144 -160 0
v -160 -160 0
v -160 -144 0
v -144 -144 0
v -160 -160 0
v -176 -160 0
v -176 -144 0
v -160 -144 0
v -176 -160 0
v -192 -160 0
v -192 -144 0
v -176 -144 0
v -192 -160 0
v -208 -160 0
v -208 -144 0
v -192 -144 0
v -208 -160 0
v -224 -160 0
v -224 -144 0
v -208 -144 0
v -224 -160 0
v -240 -160 0
v -240 -144 0
v -224 -144 0

# Texture cooridinates (Count = 228)
vt 0.001312336 0.8152174
vt 0.02230971 0.8152174
vt 0.02230971 0.85
vt 0.001312336 0.85
vt 0.02362205 0.8152174
vt 0.04461942 0.8152174
vt 0.04461942 0.85
vt 0.02362205 0.85
vt 0.02362205 0.6673913
vt 0.04461942 0.6673913
vt 0.04461942 0.7021739
vt 0.02362205 0.7021739
vt 0.04593176 0.6673913
vt 0.06692913 0.6673913
vt 0.06692913 0.7021739
vt 0.04593176 0.7021739
vt 0.06824147 0.6673913
vt 0.08923884 0.6673913
vt 0.08923884 0.7021739
vt 0.06824147 0.7021739
vt 0.1128609 0.9630435
vt 0.1338583 0.9630435
vt 0.1338583 0.9978261
vt 0.1128609 0.9978261
vt 0.001312336 0.7413043
vt 0.02230971 0.7413043
vt 0.02230971 0.7760869
vt 0.001312336 0.7760869
vt 0.06824147 0.8152174
vt 0.08923884 0.8152174
vt 0.08923884 0.85
vt 0.06824147 0.85
vt 0.001312336 0.7782609
vt 0.02230971 0.7782609
vt 0.02230971 0.8130435
vt 0.001312336 0.8130435
vt 0.02362205 0.7782609
vt 0.04461942 0.7782609
vt 0.04461942 0.8130435
vt 0.02362205 0.8130435
vt 0.09055118 0.7782609
vt 0.1115486 0.7782609
vt 0.1115486 0.8130435
vt 0.09055118 0.8130435
vt 0.1128609 0.7782609
vt 0.1338583 0.7782609
vt 0.1338583 0.8130435
vt 0.1128609 0.8130435
vt 0.17979 0.926087
vt 0.2007874 0.926087
vt 0.2007874 0.9608696
vt 0.17979 0.9608696
vt 0.04593176 0.926087
vt 0.06692913 0.926087
vt 0.06692913 0.9608696
vt 0.04593176 0.9608696
vt 0.09055118 0.6673913
vt 0.1115486 0.6673913
vt 0.1115486 0.7021739
vt 0.09055118 0.7021739
vt 0.1128609 0.6673913
vt 0.1338583 0.6673913
vt 0.1338583 0.7021739
vt 0.1128609 0.7021739
vt 0.1351706 0.6673913
vt 0.156168 0.6673913
vt 0.156168 0.7021739
vt 0.1351706 0.7021739
vt 0.06824147 0.9630435
vt 0.08923884 0.9630435
vt 0.08923884 0.9978261
vt 0.06824147 0.9978261
vt 0.09055118 0.9630435
vt 0.1115486 0.9630435
vt 0.1115486 0.9978261
vt 0.09055118 0.9978261
vt 0.04593176 0.7782609
vt 0.06692913 0.7782609
vt 0.06692913 0.8130435
vt 0.04593176 0.8130435
vt 0.06824147 0.7782609
vt 0.08923884 0.7782609
vt 0.08923884 0.8130435
vt 0.06824147 0.8130435
vt 0.02362205 0.926087
vt 0.04461942 0.926087
vt 0.04461942 0.9608696
vt 0.02362205 0.9608696
vt 0.1574803 0.926087
vt 0.1784777 0.926087
vt 0.1784777 0.9608696
vt 0.1574803 0.9608696
vt 0.1574803 0.6673913
vt 0.1784777 0.6673913
vt 0.1784777 0.7021739
vt 0.1574803 0.7021739
vt 0.17979 0.6673913
vt 0.2007874 0.6673913
vt 0.2007874 0.7021739
vt 0.17979 0.7021739
vt 0.2020997 0.6673913
vt 0.2230971 0.6673913
vt 0.2230971 0.7021739
vt 0.2020997 0.7021739
vt 0.06824147 0.8891304
vt 0.08923884 0.8891304
vt 0.08923884 0.9239131
vt 0.06824147 0.9239131
vt 0.09055118 0.8891304
vt 0.1115486 0.8891304
vt 0.1115486 0.9239131
vt 0.09055118 0.9239131
vt 0.04593176 0.8152174
vt 0.06692913 0.8152174
vt 0.06692913 0.85
vt 0.04593176 0.85
vt 0.1351706 0.926087
vt 0.156168 0.926087
vt 0.156168 0.9608696
vt 0.1351706 0.9608696
vt 0.2244094 0.8891304
vt 0.2454068 0.8891304
vt 0.2454068 0.9239131
vt 0.2244094 0.9239131
vt 0.1351706 0.8891304
vt 0.156168 0.8891304
vt 0.156168 0.9239131
vt 0.1351706 0.9239131
vt 0.2020997 0.926087
vt 0.2230971 0.926087
vt 0.2230971 0.9608696
vt 0.2020997 0.9608696
vt 0.2244094 0.926087
vt 0.2454068 0.926087
vt 0.2454068 0.9608696
vt 0.2244094 0.9608696
vt 0.17979 0.8891304
vt 0.2007874 0.8891304
vt 0.2007874 0.9239131
vt 0.17979 0.9239131
vt 0.1128609 0.8891304
vt 0.1338583 0.8891304
vt 0.1338583 0.9239131
vt 0.1128609 0.9239131
vt 0.04593176 0.8891304
vt 0.06692913 0.8891304
vt 0.06692913 0.9239131
vt 0.04593176 0.9239131
vt 0.1574803 0.8891304
vt 0.1784777 0.8891304
vt 0.1784777 0.9239131
vt 0.1574803 0.9239131
vt 0.001312336 0.8891304
vt 0.02230971 0.8891304
vt 0.02230971 0.9239131
vt 0.001312336 0.9239131
vt 0.1128609 0.926087
vt 0.1338583 0.926087
vt 0.1338583 0.9608696
vt 0.1128609 0.9608696
vt 0.2690289 0.8891304
vt 0.2900262 0.8891304
vt 0.2900262 0.9239131
vt 0.2690289 0.9239131
vt 0.1351706 0.7043478
vt 0.156168 0.7043478
vt 0.156168 0.7391304
vt 0.1351706 0.7391304
vt 0.02362205 0.8891304
vt 0.04461942 0.8891304
vt 0.04461942 0.9239131
vt 0.02362205 0.9239131
vt 0.09055118 0.926087
vt 0.1115486 0.926087
vt 0.1115486 0.9608696
vt 0.09055118 0.9608696
vt 0.06824147 0.926087
vt 0.08923884 0.926087
vt 0.08923884 0.9608696
vt 0.06824147 0.9608696
vt 0.2467192 0.8891304
vt 0.2677165 0.8891304
vt 0.2677165 0.9239131
vt 0.2467192 0.9239131
vt 0.02362205 0.7413043
vt 0.04461942 0.7413043
vt 0.04461942 0.7760869
vt 0.02362205 0.7760869
vt 0.1128609 0.7043478
vt 0.1338583 0.7043478
vt 0.1338583 0.7391304
vt 0.1128609 0.7391304
vt 0.001312336 0.926087
vt 0.02230971 0.926087
vt 0.02230971 0.9608696
vt 0.001312336 0.9608696
vt 0.04593176 0.7413043
vt 0.06692913 0.7413043
vt 0.06692913 0.7760869
vt 0.04593176 0.7760869
vt 0.04593176 0.9630435
vt 0.06692913 0.9630435
vt 0.06692913 0.9978261
vt 0.04593176 0.9978261
vt 0.02362205 0.7043478
vt 0.04461942 0.7043478
vt 0.04461942 0.7391304
vt 0.02362205 0.7391304
vt 0.06824147 0.7043478
vt 0.08923884 0.7043478
vt 0.08923884 0.7391304
vt 0.06824147 0.7391304
vt 0.04593176 0.7043478
vt 0.06692913 0.7043478
vt 0.06692913 0.7391304
vt 0.04593176 0.7391304
vt 0.09055118 0.7043478
vt 0.1115486 0.7043478
vt 0.1115486 0.7391304
vt 0.09055118 0.7391304
vt 0.02362205 0.9630435
vt 0.04461942 0.9630435
vt 0.04461942 0.9978261
vt 0.02362205 0.9978261
vt 0.001312336 0.6673913
vt 0.02230971 0.6673913
vt 0.02230971 0.7021739
vt 0.001312336 0.7021739

# Normal
vn 0 0 -1

# Mesh description
g Level_0_mesh_0001

# Faces
f 1/1/1 2/2/1 3/3/1 4/4/1
f 5/5/1 6/6/1 7/7/1 8/8/1
f 9/9/1 10/10/1 11/11/1 12/12/1
f 13/13/1 14/14/1 15/15/1 16/16/1
f 17/17/1 18/18/1 19/19/1 20/20/1
f 21/21/1 22/22/1 23/23/1 24/24/1
f 25/21/1 26/22/1 27/23/1 28/24/1
f 29/25/1 30/26/1 31/27/1 32/28/1
f 33/21/1 34/22/1 35/23/1 36/24/1
f 37/1/1 38/2/1 39/3/1 40/4/1
f 41/29/1 42/30/1 43/31/1 44/32/1
f 45/33/1 46/34/1 47/35/1 48/36/1
f 49/37/1 50/38/1 51/39/1 52/40/1
f 53/41/1 54/42/1 55/43/1 56/44/1
f 57/45/1 58/46/1 59/47/1 60/48/1
f 61/49/1 62/50/1 63/51/1 64/52/1
f 65/53/1 66/54/1 67/55/1 68/56/1
f 69/57/1 70/58/1 71/59/1 72/60/1
f 73/61/1 74/62/1 75/63/1 76/64/1
f 77/65/1 78/66/1 79/67/1 80/68/1
f 81/69/1 82/70/1 83/71/1 84/72/1
f 85/21/1 86/22/1 87/23/1 88/24/1
f 89/21/1 90/22/1 91/23/1 92/24/1
f 93/21/1 94/22/1 95/23/1 96/24/1
f 97/21/1 98/22/1 99/23/1 100/24/1
f 101/73/1 102/74/1 103/75/1 104/76/1
f 105/5/1 106/6/1 107/7/1 108/8/1
f 109/29/1 110/30/1 111/31/1 112/32/1
f 113/77/1 114/78/1 115/79/1 116/80/1
f 117/81/1 118/82/1 119/83/1 120/84/1
f 121/85/1 122/86/1 123/87/1 124/88/1
f 125/89/1 126/90/1 127/91/1 128/92/1
f 129/93/1 130/94/1 131/95/1 132/96/1
f 133/97/1 134/98/1 135/99/1 136/100/1
f 137/101/1 138/102/1 139/103/1 140/104/1
f 141/69/1 142/70/1 143/71/1 144/72/1
f 145/21/1 146/22/1 147/23/1 148/24/1
f 149/21/1 150/22/1 151/23/1 152/24/1
f 153/21/1 154/22/1 155/23/1 156/24/1
f 157/105/1 158/106/1 159/107/1 160/108/1
f 161/105/1 162/106/1 163/107/1 164/108/1
f 165/105/1 166/106/1 167/107/1 168/108/1
f 169/109/1 170/110/1 171/111/1 172/112/1
f 173/5/1 174/6/1 175/7/1 176/8/1
f 177/113/1 178/114/1 179/115/1 180/116/1
f 181/85/1 182/86/1 183/87/1 184/88/1
f 185/117/1 186/118/1 187/119/1 188/120/1
f 189/69/1 190/70/1 191/71/1 192/72/1
f 193/69/1 194/70/1 195/71/1 196/72/1
f 197/69/1 198/70/1 199/71/1 200/72/1
f 201/21/1 202/22/1 203/23/1 204/24/1
f 205/21/1 206/22/1 207/23/1 208/24/1
f 209/121/1 210/122/1 211/123/1 212/124/1
f 213/121/1 214/122/1 215/123/1 216/124/1
f 217/121/1 218/122/1 219/123/1 220/124/1
f 221/125/1 222/126/1 223/127/1 224/128/1
f 225/105/1 226/106/1 227/107/1 228/108/1
f 229/109/1 230/110/1 231/111/1 232/112/1
f 233/109/1 234/110/1 235/111/1 236/112/1
f 237/69/1 238/70/1 239/71/1 240/72/1
f 241/129/1 242/130/1 243/131/1 244/132/1
f 245/133/1 246/134/1 247/135/1 248/136/1
f 249/69/1 250/70/1 251/71/1 252/72/1
f 253/69/1 254/70/1 255/71/1 256/72/1
f 257/69/1 258/70/1 259/71/1 260/72/1
f 261/49/1 262/50/1 263/51/1 264/52/1
f 265/53/1 266/54/1 267/55/1 268/56/1
f 269/121/1 270/122/1 271/123/1 272/124/1
f 273/137/1 274/138/1 275/139/1 276/140/1
f 277/125/1 278/126/1 279/127/1 280/128/1
f 281/141/1 282/142/1 283/143/1 284/144/1
f 285/137/1 286/138/1 287/139/1 288/140/1
f 289/125/1 290/126/1 291/127/1 292/128/1
f 293/109/1 294/110/1 295/111/1 296/112/1
f 297/69/1 298/70/1 299/71/1 300/72/1
f 301/145/1 302/146/1 303/147/1 304/148/1
f 305/149/1 306/150/1 307/151/1 308/152/1
f 309/137/1 310/138/1 311/139/1 312/140/1
f 313/153/1 314/154/1 315/155/1 316/156/1
f 317/153/1 318/154/1 319/155/1 320/156/1
f 321/157/1 322/158/1 323/159/1 324/160/1
f 325/89/1 326/90/1 327/91/1 328/92/1
f 329/161/1 330/162/1 331/163/1 332/164/1
f 333/161/1 334/162/1 335/163/1 336/164/1
f 337/161/1 338/162/1 339/163/1 340/164/1
f 341/141/1 342/142/1 343/143/1 344/144/1
f 345/141/1 346/142/1 347/143/1 348/144/1
f 349/141/1 350/142/1 351/143/1 352/144/1
f 353/137/1 354/138/1 355/139/1 356/140/1
f 357/69/1 358/70/1 359/71/1 360/72/1
f 361/105/1 362/106/1 363/107/1 364/108/1
f 365/125/1 366/126/1 367/127/1 368/128/1
f 369/141/1 370/142/1 371/143/1 372/144/1
f 373/109/1 374/110/1 375/111/1 376/112/1
f 377/21/1 378/22/1 379/23/1 380/24/1
f 381/157/1 382/158/1 383/159/1 384/160/1
f 385/133/1 386/134/1 387/135/1 388/136/1
f 389/141/1 390/142/1 391/143/1 392/144/1
f 393/161/1 394/162/1 395/163/1 396/164/1
f 397/161/1 398/162/1 399/163/1 400/164/1
f 401/105/1 402/106/1 403/107/1 404/108/1
f 405/161/1 406/162/1 407/163/1 408/164/1
f 409/161/1 410/162/1 411/163/1 412/164/1
f 413/161/1 414/162/1 415/163/1 416/164/1
f 417/69/1 418/70/1 419/71/1 420/72/1
f 421/165/1 422/166/1 423/167/1 424/168/1
f 425/169/1 426/170/1 427/171/1 428/172/1
f 429/145/1 430/146/1 431/147/1 432/148/1
f 433/105/1 434/106/1 435/107/1 436/108/1
f 437/173/1 438/174/1 439/175/1 440/176/1
f 441/117/1 442/118/1 443/119/1 444/120/1
f 445/69/1 446/70/1 447/71/1 448/72/1
f 449/49/1 450/50/1 451/51/1 452/52/1
f 453/177/1 454/178/1 455/179/1 456/180/1
f 457/105/1 458/106/1 459/107/1 460/108/1
f 461/181/1 462/182/1 463/183/1 464/184/1
f 465/161/1 466/162/1 467/163/1 468/164/1
f 469/161/1 470/162/1 471/163/1 472/164/1
f 473/185/1 474/186/1 475/187/1 476/188/1
f 477/69/1 478/70/1 479/71/1 480/72/1
f 481/189/1 482/190/1 483/191/1 484/192/1
f 485/141/1 486/142/1 487/143/1 488/144/1
f 489/137/1 490/138/1 491/139/1 492/140/1
f 493/109/1 494/110/1 495/111/1 496/112/1
f 497/69/1 498/70/1 499/71/1 500/72/1
f 501/129/1 502/130/1 503/131/1 504/132/1
f 505/193/1 506/194/1 507/195/1 508/196/1
f 509/117/1 510/118/1 511/119/1 512/120/1
f 513/181/1 514/182/1 515/183/1 516/184/1
f 517/181/1 518/182/1 519/183/1 520/184/1
f 521/181/1 522/182/1 523/183/1 524/184/1
f 525/149/1 526/150/1 527/151/1 528/152/1
f 529/165/1 530/166/1 531/167/1 532/168/1
f 533/197/1 534/198/1 535/199/1 536/200/1
f 537/201/1 538/202/1 539/203/1 540/204/1
f 541/205/1 542/206/1 543/207/1 544/208/1
f 545/109/1 546/110/1 547/111/1 548/112/1
f 549/25/1 550/26/1 551/27/1 552/28/1
f 553/145/1 554/146/1 555/147/1 556/148/1
f 557/141/1 558/142/1 559/143/1 560/144/1
f 561/149/1 562/150/1 563/151/1 564/152/1
f 565/129/1 566/130/1 567/131/1 568/132/1
f 569/133/1 570/134/1 571/135/1 572/136/1
f 573/73/1 574/74/1 575/75/1 576/76/1
f 577/209/1 578/210/1 579/211/1 580/212/1
f 581/213/1 582/214/1 583/215/1 584/216/1
f 585/217/1 586/218/1 587/219/1 588/220/1
f 589/189/1 590/190/1 591/191/1 592/192/1
f 593/221/1 594/222/1 595/223/1 596/224/1
f 597/225/1 598/226/1 599/227/1 600/228/1

